<svg xmlns="http://www.w3.org/2000/svg" width="526" height="540" fill="none" xmlns:v="https://vecta.io/nano"><style><![CDATA[.B{fill:#063676}.C{fill:#fff}.D{opacity:.8}.E{opacity:.2}.F{fill:#04b7e1}.G{fill:#4d5c74}]]></style><path d="M470.277 440.524H272.644l11.788-134.687h197.633l-11.788 134.687z" class="C"/><g fill="#d9dee7"><path d="M402.917 416.544H295.636v1.058h107.281v-1.058zm2.306-19.532H297.034v-.583l6.524-74.491h108.23v.583l-6.565 74.491zM298.16 395.9h106.032l6.376-72.945H304.535L298.16 395.9zm3.255 36.621h-2.917a4.15 4.15 0 0 1-1.716-.336c-.542-.233-1.027-.578-1.425-1.013s-.699-.95-.882-1.51-.245-1.153-.182-1.739l.258-2.916a5.02 5.02 0 0 1 4.91-4.517h2.917a4.15 4.15 0 0 1 1.716.336c.542.233 1.028.578 1.425 1.013a4.16 4.16 0 0 1 .882 1.51 4.15 4.15 0 0 1 .182 1.739l-.258 2.916a5.02 5.02 0 0 1-4.91 4.517zm-1.954-10.973c-.964.015-1.889.384-2.6 1.037a3.93 3.93 0 0 0-1.252 2.503l-.258 2.916c-.046.443.002.89.14 1.313a3.17 3.17 0 0 0 .661 1.142c.298.324.661.58 1.066.753a3.11 3.11 0 0 0 1.28.251h2.917c.966-.015 1.893-.383 2.605-1.036s1.161-1.543 1.261-2.504l.244-2.916a3.19 3.19 0 0 0-.139-1.313c-.138-.423-.364-.812-.662-1.142a3.09 3.09 0 0 0-1.065-.754c-.405-.173-.841-.258-1.281-.25h-2.917zm51.017-11.203H295.84l.502-5.791h54.637l-.501 5.791zm-53.444-1.058h52.508l.325-3.675h-52.548l-.285 3.675zm105.273 20.129h-21.703l.502-5.792h21.73l-.529 5.792zm-20.604-1.058h19.641l.326-3.676h-19.641l-.326 3.676zm22.354-18.013h-5.806l.502-5.791h5.806l-.502 5.791zm-4.653-1.058h3.676l.326-3.675h-3.676l-.326 3.675zm-3.351 1.058h-5.792l.502-5.791h5.805l-.515 5.791zm-4.639-1.058h3.676l.312-3.675h-3.662l-.326 3.675zm-3.404 1.058h-5.792l.502-5.791h5.792l-.502 5.791zm-4.639-1.058h3.662l.326-3.675h-3.663l-.325 3.675zm28.96-92.965h-81.386l.447-5.127h81.387l-.448 5.127zm-80.274-1.058h79.297l.272-3.011h-79.325l-.244 3.011zm-6.538 1.397h-21.703l.502-5.792h21.703l-.502 5.792zm-20.604-1.072h19.641l.325-3.662h-19.6l-.366 3.662zm158.486 30.708h-38.238l1.926-21.96h38.238l-1.926 21.96zm-37.085-1.058h36.108l1.75-19.871h-36.122l-1.736 19.871zm33.49 42.305h-38.251l1.926-21.973h38.238l-1.913 21.973zm-37.085-1.058h36.109l1.736-19.857h-36.122l-1.723 19.857z"/><path d="M456.184 428.792h-38.238l1.926-21.974h38.238l-1.926 21.974zm-37.071-1.058h36.108l1.75-19.858h-36.136l-1.722 19.858zm45.38-103.366l-38.996 20.935.5.932 38.996-20.935-.5-.932z"/><path d="M462.641 346.23l-35.335-20.915.529-.909 35.349 20.902-.543.922zm-1.739 19.445l-39.026 20.881.5.932 39.025-20.88-.499-.933z"/><path d="M424.234 365.658l-.539.91 35.35 20.913.539-.91-35.35-20.913zm-6.328 63.528l1.994-22.719 18.204 10.729 19.248-10.309.502.936-18.679 9.997 16.861 9.982-.543.909-17.416-10.295-20.171 10.77zm2.903-20.956l-1.695 19.098 17.81-9.495-16.115-9.603zm-9.893-86.199l-113.636 73.99.577.886 113.636-73.99-.577-.886z"/><path d="M304.359 322.033l-.627.853 100.679 74.006.627-.852-100.679-74.007z"/></g><path d="M410.052 49.483c-.013-3.731-.573-7.439-1.662-11.004l9.56-8.488-6.019-10.517L399.91 23.6a37.57 37.57 0 0 0-18.889-11.004L378.511 0h-12.038l-2.494 12.597c-7.236 1.703-13.809 5.532-18.889 11.004l-12.071-4.11L327 30.009l9.561 8.488c-2.151 7.175-2.151 14.832 0 22.007L327 68.991l6.019 10.517 12.071-4.11c5.08 5.471 11.653 9.301 18.889 11.004L366.473 99h12.038l2.51-12.597a37.57 37.57 0 0 0 18.889-11.004l12.071 4.11L418 68.991l-9.561-8.488c1.074-3.573 1.617-7.287 1.613-11.021zm-37.56 20.448a19.4 19.4 0 0 1-10.845-3.319 19.66 19.66 0 0 1-7.19-8.838 19.85 19.85 0 0 1-1.11-11.378c.753-3.82 2.612-7.329 5.342-10.083a19.46 19.46 0 0 1 9.995-5.389 19.36 19.36 0 0 1 11.278 1.121c3.567 1.49 6.615 4.015 8.76 7.253s3.29 7.046 3.29 10.941c0 5.223-2.057 10.232-5.717 13.925s-8.626 5.768-13.803 5.768zm-226.81 234.346a55.58 55.58 0 0 0 5.425-15.449l18.421-4.435-.692-17.89-18.719-3.012c-2.904-10.654-8.91-20.205-17.254-27.439l5.358-18.162-15.83-8.355-11.95 14.69c-10.69-2.806-21.973-2.376-32.419 1.234l-13.035-13.74-15.165 9.494 6.782 17.701c-7.779 7.866-13.048 17.864-15.138 28.728l-18.407 4.422.678 17.89 18.705 3.011a55.96 55.96 0 0 0 17.267 27.467l-5.426 18.148 15.843 8.355 11.964-14.676a55.92 55.92 0 0 0 32.405-1.261l13.035 13.74 15.165-9.495-6.782-17.633c3.903-3.931 7.195-8.426 9.767-13.333zm-63.455.611c-5.078-2.68-9.247-6.805-11.98-11.855s-3.907-10.795-3.374-16.512a29.02 29.02 0 0 1 20.336-25.037 29.02 29.02 0 0 1 16.853-.085 29.03 29.03 0 0 1 20.587 24.831 29.02 29.02 0 0 1-3.207 16.545c-3.592 6.79-9.731 11.878-17.069 14.149a29.02 29.02 0 0 1-22.078-2.036h-.068z" fill="#eceff3"/><g fill="#d9dee7"><path d="M86.835 63.292l10.635 5.887a3.53 3.53 0 0 1 1.072.8c.181.267.272.586.258.909a1.68 1.68 0 0 1-.488 1.194 1.62 1.62 0 0 1-.526.367 1.63 1.63 0 0 1-.627.135 3.05 3.05 0 0 1-1.356-.488l-13.727-7.623c-.209-.118-.382-.29-.503-.497s-.184-.443-.184-.683.064-.476.184-.683a1.35 1.35 0 0 1 .503-.497l13.727-7.636a3.13 3.13 0 0 1 1.289-.461 1.62 1.62 0 0 1 .633.126 1.63 1.63 0 0 1 .534.362c.157.156.281.342.365.547s.126.425.123.646a1.42 1.42 0 0 1-.258.895 3.53 3.53 0 0 1-1.072.8l-10.58 5.9zm27.347-11.001l-10.526 22.733a3.12 3.12 0 0 1-.719 1.099 1.52 1.52 0 0 1-1.004.339 1.61 1.61 0 0 1-.631-.119 1.6 1.6 0 0 1-.535-.356c-.151-.138-.272-.306-.356-.492s-.129-.388-.133-.593a3.34 3.34 0 0 1 .38-1.275l10.594-22.706c.16-.413.4-.791.705-1.112.289-.218.643-.332 1.004-.325a1.6 1.6 0 0 1 .623.114c.198.079.378.197.53.347a1.48 1.48 0 0 1 .351.493 1.47 1.47 0 0 1 .124.592 3.33 3.33 0 0 1-.407 1.261zm13.237 11.001l-10.634-5.9a3.53 3.53 0 0 1-1.072-.8 1.42 1.42 0 0 1-.257-.895c-.003-.222.039-.441.123-.646a1.66 1.66 0 0 1 .365-.547c.152-.155.333-.278.534-.362a1.62 1.62 0 0 1 .632-.126 3.13 3.13 0 0 1 1.289.461l13.727 7.636a1.35 1.35 0 0 1 .503.497c.121.207.185.443.185.683s-.064.476-.185.683a1.35 1.35 0 0 1-.503.497l-13.727 7.623a3.08 3.08 0 0 1-1.289.488 1.63 1.63 0 0 1-.643-.136 1.65 1.65 0 0 1-.537-.379c-.152-.161-.276-.344-.358-.549s-.121-.424-.116-.645a1.48 1.48 0 0 1 .257-.895 3.53 3.53 0 0 1 1.072-.8l10.634-5.887z"/><path opacity=".6" d="M263 540c145.251 0 263-6.874 263-15.354s-117.749-15.354-263-15.354S0 516.166 0 524.646 117.749 540 263 540z"/></g><g fill="#a7b4c6"><path d="M411.001 193.923a21.71 21.71 0 0 1-12.057-3.657c-3.569-2.385-6.351-5.774-7.994-9.74a21.7 21.7 0 0 1-1.235-12.538 21.71 21.71 0 0 1 5.94-11.112 21.7 21.7 0 0 1 11.112-5.939c4.21-.838 8.574-.408 12.54 1.234s7.355 4.425 9.74 7.993a21.71 21.71 0 0 1 3.657 12.057 21.7 21.7 0 0 1-21.703 21.702zm0-42.047c-4.024 0-7.958 1.193-11.304 3.429a20.34 20.34 0 0 0-7.494 9.131c-1.54 3.717-1.943 7.808-1.158 11.755s2.723 7.571 5.569 10.417 6.471 4.783 10.418 5.568 8.038.382 11.755-1.158 6.896-4.147 9.132-7.493 3.429-7.28 3.429-11.304a20.34 20.34 0 0 0-5.969-14.368c-3.815-3.81-8.986-5.95-14.378-5.95v-.027z"/><path d="M407.259 184.781l-10.119-13.374 1.085-.827 8.491 11.244c3.958-12.6 11.934-23.557 22.707-31.196l3.025-2.13.773 1.112-3.065 2.157a59.01 59.01 0 0 0-22.571 31.712l-.326 1.302z"/></g><path d="M340.697 49.005H305.43l-35.498 405.974h35.267c8.046-.144 15.76-3.231 21.683-8.677s9.647-12.874 10.465-20.879L367.704 78.56c.411-3.765.015-7.575-1.161-11.176s-3.107-6.909-5.662-9.705-5.677-5.016-9.157-6.512a26.67 26.67 0 0 0-11.027-2.162z" class="B"/><path opacity=".5" d="M340.697 49.005h-35.268l-35.498 405.974h35.268a32.91 32.91 0 0 0 21.683-8.677c5.924-5.446 9.646-12.874 10.464-20.879L367.704 78.56a26.66 26.66 0 0 0-1.162-11.176 26.65 26.65 0 0 0-5.662-9.705c-2.555-2.796-5.676-5.016-9.157-6.512s-7.239-2.233-11.026-2.162z" fill="#111a2b"/><path d="M297.97 454.978H152.831a26.66 26.66 0 0 1-11.017-2.17c-3.476-1.498-6.594-3.718-9.145-6.514s-4.477-6.104-5.651-9.703-1.566-7.405-1.154-11.168L156.208 78.56c.818-8.005 4.541-15.432 10.465-20.878s13.637-8.533 21.683-8.677h145.139c3.785-.069 7.542.67 11.02 2.166a26.65 26.65 0 0 1 9.15 6.513c2.553 2.796 4.48 6.105 5.654 9.704s1.568 7.408 1.155 11.172l-30.357 346.863c-.821 8.004-4.544 15.43-10.467 20.875a32.92 32.92 0 0 1-21.68 8.68z" class="B"/><path d="M332.884 55.787h-37.722c-1.23.016-2.417.448-3.368 1.227a5.42 5.42 0 0 0-1.868 3.059l-.258 1.18a13.38 13.38 0 0 1-4.589 7.453c-2.323 1.899-5.216 2.962-8.216 3.019h-35.864a10.77 10.77 0 0 1-7.643-2.976c-2.055-1.961-3.252-4.655-3.331-7.495v-1.18a4.42 4.42 0 0 0-4.503-4.286h-37.763c-6.199.114-12.141 2.493-16.704 6.689a25.36 25.36 0 0 0-8.065 16.084l-30.343 346.864c-.319 2.899-.016 5.833.888 8.606a20.54 20.54 0 0 0 4.355 7.477 20.55 20.55 0 0 0 7.048 5.019 20.53 20.53 0 0 0 8.489 1.671h145.139c6.2-.113 12.144-2.492 16.71-6.687s7.437-9.918 8.072-16.086L353.692 78.56c.319-2.902.015-5.838-.891-8.613s-2.392-5.325-4.361-7.48a20.53 20.53 0 0 0-7.058-5.017c-2.682-1.152-5.579-1.719-8.498-1.663z" class="C"/><path d="M251.213 59.625a3.2 3.2 0 0 1-3.133 2.889c-.37.006-.737-.067-1.076-.213a2.61 2.61 0 0 1-.893-.637 2.62 2.62 0 0 1-.663-2.039c.08-.78.443-1.503 1.02-2.033a3.2 3.2 0 0 1 2.114-.842 2.6 2.6 0 0 1 1.072.212 2.61 2.61 0 0 1 .89.633c.249.272.437.593.552.943a2.6 2.6 0 0 1 .117 1.087zm20.686-2.875h-9.875a3.2 3.2 0 0 0-3.134 2.876c-.042.367-.006.738.107 1.09a2.59 2.59 0 0 0 2.511 1.799h9.889a3.2 3.2 0 0 0 3.133-2.889c.041-.367.003-.738-.112-1.089s-.302-.673-.551-.946a2.58 2.58 0 0 0-.893-.633 2.59 2.59 0 0 0-1.075-.208z" class="E G"/><path d="M179.39 71.67h3.052l.271-3.052h-3.052l-.271 3.052zm6.375-3.052l-.271 3.052h3.052l.271-3.052.258-3.052h-3.052l-.258 3.052zm6.633-6.103l-.271 3.052-.258 3.052-.271 3.052h3.052l.271-3.052.258-3.052.271-3.052h-3.052zm131.222.203l-.19 2.238h-1.492l-.394 4.476h1.493l-.204 2.238h13.429l.773-8.952H323.62zm5.426 6.714h-4.477l.394-4.476h4.476l-.393 4.476z" class="G"/><path d="M317.543 304.626H121.239L137.76 115.874H334.051L317.543 304.626Z" class="B E"/><path d="M312.348 298.942H116.057L132.565 110.19H328.869L312.348 298.942Z" class="F"/><path opacity=".9" d="M312.348 298.942H116.058L132.566 110.19H328.869L312.348 298.942Z" class="C"/><g class="D"><path opacity=".15" d="M312.348 298.941H116.057l16.508-188.752h196.304l-16.521 188.752z" class="F"/><path d="M312.972 299.62H115.298l.068-.746 16.589-189.362h197.66L312.972 299.62zm-196.182-1.356h194.934l16.399-187.396H133.189L116.79 298.264z" class="B D"/></g><path d="M301.428 246.953h-165.35l10.567-120.798h165.35l-10.567 120.798z" class="C"/><g class="B"><path d="M302.052 247.631h-166.72l10.689-122.154h166.72l-10.689 122.154zm-165.241-1.356h163.993l10.445-119.442h-163.98l-10.458 119.442z"/><path d="M147.057 125.599l-.835 1.069 154.785 120.794.834-1.069-154.784-120.794z"/><path d="M311.596 125.536L135.72 246.405l.768 1.118 175.876-120.869-.768-1.118zM200.184 264.64c-.172 1.689-.958 3.257-2.207 4.406a6.95 6.95 0 0 1-4.575 1.833c-.8.014-1.593-.142-2.327-.458s-1.393-.784-1.932-1.375a5.62 5.62 0 0 1-1.194-2.048c-.248-.76-.331-1.564-.244-2.358a6.96 6.96 0 0 1 6.782-6.24c.799-.014 1.592.142 2.326.458s1.393.785 1.932 1.375a5.62 5.62 0 0 1 1.194 2.048 5.63 5.63 0 0 1 .245 2.359zm23.249 0a6.94 6.94 0 0 1-2.207 4.406c-1.25 1.15-2.877 1.802-4.575 1.833a5.63 5.63 0 0 1-2.322-.462c-.733-.317-1.39-.786-1.927-1.376a5.63 5.63 0 0 1-1.191-2.046c-.247-.759-.33-1.562-.244-2.355a6.95 6.95 0 0 1 2.208-4.407 6.94 6.94 0 0 1 4.575-1.833 5.63 5.63 0 0 1 2.325.458c.733.316 1.391.785 1.929 1.375a5.61 5.61 0 0 1 1.429 4.407zm23.263-.001a6.94 6.94 0 0 1-2.207 4.407c-1.25 1.15-2.877 1.802-4.575 1.833a5.63 5.63 0 0 1-2.325-.458c-.734-.316-1.391-.785-1.929-1.375a5.61 5.61 0 0 1-1.19-2.049c-.247-.76-.328-1.564-.24-2.358a6.95 6.95 0 0 1 2.207-4.406c1.25-1.15 2.878-1.802 4.576-1.833.798-.012 1.589.145 2.322.462s1.389.786 1.927 1.376a5.61 5.61 0 0 1 1.434 4.401z"/></g><path d="M198.664 405.269h-91.912l7.732-88.381h91.912l-7.732 88.381z" class="F"/><g class="D"><path opacity=".15" d="M198.665 405.269h-91.913l7.732-88.381h91.912l-7.731 88.381z" class="F"/><path opacity=".9" d="M198.664 405.269h-91.912l7.732-88.381h91.912l-7.732 88.381z" class="C"/><path d="M199.289 406.015h-93.283l7.854-89.738h93.282l-7.853 89.738zm-91.791-1.357h90.543l7.609-87.024h-90.542l-7.61 87.024z" class="B D"/></g><path d="M193.551 380.922h-77.426l4.951-56.561h77.426l-4.951 56.561z" class="C"/><g class="B"><path d="M194.175 381.599h-78.782l5.059-57.916h78.782l-5.059 57.916zm-77.317-1.356h76.055l4.829-55.204H121.7l-4.842 55.204z"/><path d="M198.122 323.754l-82.354 56.598.768 1.117 82.354-56.597-.768-1.118z"/><path d="M121.487 323.813l-.834 1.069 72.479 56.562.834-1.069-72.479-56.562zm24.656 65.395a3.24 3.24 0 0 1-1.032 2.062c-.585.538-1.347.842-2.142.854-.378.017-.755-.049-1.106-.193a2.63 2.63 0 0 1-.923-.639c-.258-.277-.453-.607-.571-.967s-.156-.741-.113-1.117a3.26 3.26 0 0 1 1.031-2.067c.585-.54 1.348-.847 2.143-.863.376-.001.747.076 1.091.225s.654.37.909.645.45.601.573.955a2.73 2.73 0 0 1 .14 1.105zm10.892 0a3.25 3.25 0 0 1-3.174 2.916c-.377.014-.754-.053-1.103-.198a2.63 2.63 0 0 1-1.491-1.603 2.62 2.62 0 0 1-.118-1.115c.082-.791.449-1.524 1.034-2.064a3.27 3.27 0 0 1 2.14-.866c.375-.001.746.076 1.09.225s.654.37.909.645.45.601.573.955a2.69 2.69 0 0 1 .14 1.105zm10.893 0c-.083.79-.451 1.522-1.036 2.059a3.25 3.25 0 0 1-2.138.857 2.63 2.63 0 0 1-1.104-.198c-.349-.144-.663-.362-.92-.639a2.63 2.63 0 0 1-.571-.964c-.119-.359-.159-.739-.118-1.115a3.25 3.25 0 0 1 1.031-2.067c.585-.54 1.347-.847 2.143-.863a2.73 2.73 0 0 1 1.091.225c.344.15.653.37.908.645s.45.601.573.955a2.71 2.71 0 0 1 .141 1.105z"/></g><path d="M303.043 405.268H211.13l7.732-88.381h91.912l-7.731 88.381z" class="F"/><g class="D"><path opacity=".9" d="M303.043 405.268H211.13l7.732-88.381h91.912l-7.731 88.381z" class="C"/><path d="M303.667 406.014h-93.269l7.854-89.738h93.268l-7.853 89.738zm-91.791-1.357h90.61l7.624-87.024h-90.624l-7.61 87.024z" class="B D"/></g><path d="M297.929 380.921h-77.426l4.951-56.561h77.426l-4.951 56.561z" class="C"/><g class="B"><path d="M298.553 381.599h-78.809l5.059-57.916h78.796l-5.046 57.916zm-77.317-1.356h76.055l4.829-55.204h-76.042l-4.842 55.204z"/><path d="M225.879 323.799l-.835 1.069 72.479 56.563.835-1.07-72.479-56.562z"/><path d="M302.495 323.76l-82.354 56.597.768 1.118 82.355-56.597-.769-1.118zm-51.974 65.448a3.24 3.24 0 0 1-1.032 2.062c-.585.538-1.347.842-2.142.854-.378.016-.755-.05-1.106-.193a2.63 2.63 0 0 1-.923-.639c-.258-.277-.453-.607-.571-.967s-.156-.741-.113-1.117a3.26 3.26 0 0 1 1.031-2.067c.585-.54 1.348-.847 2.143-.863a2.64 2.64 0 0 1 2.6 1.811 2.62 2.62 0 0 1 .113 1.119zm10.892 0a3.24 3.24 0 0 1-1.032 2.062c-.585.538-1.347.842-2.142.854-.378.016-.755-.05-1.106-.193a2.63 2.63 0 0 1-.923-.639 2.61 2.61 0 0 1-.57-.967 2.63 2.63 0 0 1-.114-1.117 3.26 3.26 0 0 1 1.032-2.067c.584-.54 1.347-.847 2.143-.863.379-.014.756.054 1.106.199a2.63 2.63 0 0 1 .923.643c.258.278.452.609.57.969a2.62 2.62 0 0 1 .113 1.119zm10.893 0c-.08.791-.447 1.524-1.032 2.062a3.24 3.24 0 0 1-2.142.854 2.63 2.63 0 0 1-1.104-.198c-.349-.144-.663-.362-.92-.639a2.63 2.63 0 0 1-.571-.964c-.119-.359-.159-.739-.118-1.115.082-.793.452-1.529 1.039-2.068a3.27 3.27 0 0 1 2.148-.862 2.71 2.71 0 0 1 1.991.875 2.72 2.72 0 0 1 .569.953c.122.354.17.729.14 1.102zm29.095-286.844h-97.148l1.14-13.021h97.148l-1.14 13.021z"/></g><path d="M193.524 99.448h-15.016v1.357h15.016v-1.357zm.434-5.073h-15.016v1.356h15.016v-1.356zm.447-5.072H179.39v1.356h15.015v-1.356z" class="G"/><path d="M241.108 71.725L140.921 444.223c3.639 2.624 8.021 4.016 12.506 3.975h7.841L262.512 71.725h-21.404zm91.776-15.938h-37.722c-1.23.016-2.417.448-3.368 1.227a5.42 5.42 0 0 0-1.868 3.059l-.258 1.18a13.39 13.39 0 0 1-4.416 7.301 13.4 13.4 0 0 1-7.928 3.156L176.066 448.197h77.236L353.678 74.966c-.324-5.261-2.668-10.193-6.543-13.767a20.44 20.44 0 0 0-14.251-5.412z" class="E C"/><path d="M353.258 81.639h-190.62v2.034h190.62v-2.034z" class="B"/></svg>